<svg width="39" height="31" viewBox="0 0 39 31" fill="none" xmlns="http://www.w3.org/2000/svg">
<path d="M19.9354 30.7477C27.2688 30.7477 33.2136 24.8249 33.2136 17.5187C33.2136 10.2125 27.2688 4.28973 19.9354 4.28973C12.602 4.28973 6.6571 10.2125 6.6571 17.5187C6.6571 24.8249 12.602 30.7477 19.9354 30.7477Z" fill="#4C6EB5"/>
<path opacity="0.86" d="M13.5659 22.8819C18.7688 22.8819 22.9866 18.6798 22.9866 13.4962C22.9866 8.31266 18.7688 4.11053 13.5659 4.11053C8.36304 4.11053 4.14526 8.31266 4.14526 13.4962C4.14526 18.6798 8.36304 22.8819 13.5659 22.8819Z" fill="#FCB75F"/>
<path opacity="0.86" d="M24.2425 25.3844C30.139 25.3844 34.9191 20.6221 34.9191 14.7475C34.9191 8.87285 30.139 4.11053 24.2425 4.11053C18.346 4.11053 13.5659 8.87285 13.5659 14.7475C13.5659 20.6221 18.346 25.3844 24.2425 25.3844Z" fill="#7757A4"/>
<path opacity="0.85" d="M14.5521 30.4789C18.9124 30.4789 22.4472 26.9573 22.4472 22.6131C22.4472 18.269 18.9124 14.7474 14.5521 14.7474C10.1918 14.7474 6.6571 18.269 6.6571 22.6131C6.6571 26.9573 10.1918 30.4789 14.5521 30.4789Z" fill="#F2737E"/>
<path d="M19.2175 3.21915C20.1098 3.21915 20.8331 2.49852 20.8331 1.60957C20.8331 0.720631 20.1098 0 19.2175 0C18.3252 0 17.6019 0.720631 17.6019 1.60957C17.6019 2.49852 18.3252 3.21915 19.2175 3.21915Z" fill="#F48592"/>
<path d="M2.28392 21.6755C3.43607 21.6755 4.37007 20.745 4.37007 19.5971C4.37007 18.4492 3.43607 17.5187 2.28392 17.5187C1.13176 17.5187 0.197754 18.4492 0.197754 19.5971C0.197754 20.745 1.13176 21.6755 2.28392 21.6755Z" fill="#4C6EB5"/>
<path opacity="0.85" d="M4.37012 23.6852C4.9644 23.6852 5.44616 23.2053 5.44616 22.6132C5.44616 22.0211 4.9644 21.5411 4.37012 21.5411C3.77583 21.5411 3.29407 22.0211 3.29407 22.6132C3.29407 23.2053 3.77583 23.6852 4.37012 23.6852Z" fill="#F2737E"/>
<path d="M32.4957 28.1093C33.1645 28.1093 33.7067 27.5692 33.7067 26.9029C33.7067 26.2366 33.1645 25.6965 32.4957 25.6965C31.8269 25.6965 31.2848 26.2366 31.2848 26.9029C31.2848 27.5692 31.8269 28.1093 32.4957 28.1093Z" fill="#FCB75F"/>
<path opacity="0.94" d="M37.251 16.4899C38.217 16.4899 39 15.7098 39 14.7475C39 13.7851 38.217 13.005 37.251 13.005C36.2851 13.005 35.5021 13.7851 35.5021 14.7475C35.5021 15.7098 36.2851 16.4899 37.251 16.4899Z" fill="#7757A4"/>
</svg>
