<svg width="133" height="66" viewBox="0 0 133 66" fill="none" xmlns="http://www.w3.org/2000/svg">
<g clip-path="url(#clip0_67_11756)">
<path d="M113.935 30.7477C121.269 30.7477 127.214 24.8249 127.214 17.5187C127.214 10.2125 121.269 4.28973 113.935 4.28973C106.602 4.28973 100.657 10.2125 100.657 17.5187C100.657 24.8249 106.602 30.7477 113.935 30.7477Z" fill="#4C6EB5"/>
<path opacity="0.86" d="M107.566 22.8819C112.769 22.8819 116.987 18.6798 116.987 13.4962C116.987 8.31266 112.769 4.11053 107.566 4.11053C102.363 4.11053 98.1453 8.31266 98.1453 13.4962C98.1453 18.6798 102.363 22.8819 107.566 22.8819Z" fill="#FCB75F"/>
<path opacity="0.86" d="M118.243 25.3844C124.139 25.3844 128.919 20.6221 128.919 14.7475C128.919 8.87285 124.139 4.11053 118.243 4.11053C112.346 4.11053 107.566 8.87285 107.566 14.7475C107.566 20.6221 112.346 25.3844 118.243 25.3844Z" fill="#7757A4"/>
<path opacity="0.85" d="M108.552 30.4789C112.912 30.4789 116.447 26.9573 116.447 22.6131C116.447 18.269 112.912 14.7474 108.552 14.7474C104.192 14.7474 100.657 18.269 100.657 22.6131C100.657 26.9573 104.192 30.4789 108.552 30.4789Z" fill="#F2737E"/>
<path d="M113.217 3.21915C114.11 3.21915 114.833 2.49852 114.833 1.60957C114.833 0.720631 114.11 0 113.217 0C112.325 0 111.602 0.720631 111.602 1.60957C111.602 2.49852 112.325 3.21915 113.217 3.21915Z" fill="#F48592"/>
<path d="M96.2839 21.6755C97.4361 21.6755 98.3701 20.745 98.3701 19.5971C98.3701 18.4492 97.4361 17.5187 96.2839 17.5187C95.1318 17.5187 94.1978 18.4492 94.1978 19.5971C94.1978 20.745 95.1318 21.6755 96.2839 21.6755Z" fill="#4C6EB5"/>
<path opacity="0.85" d="M98.3701 23.6852C98.9644 23.6852 99.4461 23.2053 99.4461 22.6132C99.4461 22.0211 98.9644 21.5411 98.3701 21.5411C97.7758 21.5411 97.294 22.0211 97.294 22.6132C97.294 23.2053 97.7758 23.6852 98.3701 23.6852Z" fill="#F2737E"/>
<path d="M126.496 28.1093C127.165 28.1093 127.707 27.5692 127.707 26.9029C127.707 26.2366 127.165 25.6965 126.496 25.6965C125.827 25.6965 125.285 26.2366 125.285 26.9029C125.285 27.5692 125.827 28.1093 126.496 28.1093Z" fill="#FCB75F"/>
<path opacity="0.94" d="M131.251 16.4899C132.217 16.4899 133 15.7098 133 14.7475C133 13.7851 132.217 13.005 131.251 13.005C130.285 13.005 129.502 13.7851 129.502 14.7475C129.502 15.7098 130.285 16.4899 131.251 16.4899Z" fill="#7757A4"/>
<path d="M7.08274 39.8198C7.74972 39.6896 8.42779 39.6241 9.10746 39.6242C10.0666 39.6242 11.273 39.7979 12.7268 40.1453C13.7129 40.3842 14.206 40.8401 14.206 41.513C14.2003 41.7033 14.1318 41.8865 14.0111 42.0341C13.892 42.2061 13.7393 42.3524 13.5621 42.4642C13.385 42.5761 13.187 42.6512 12.98 42.6851C12.499 42.7941 12.0389 42.8926 11.5983 42.9837C11.3312 43.0503 11.0568 43.0834 10.7815 43.0823C10.297 43.0651 9.81506 43.0051 9.34125 42.9031C8.89302 42.8052 8.4373 42.7453 7.97895 42.7239C7.76696 42.7203 7.55598 42.7537 7.3555 42.8224C5.0985 43.4734 3.96999 44.9496 3.96999 47.251C3.97294 47.9172 4.09107 48.5778 4.31919 49.204C4.70884 50.2462 5.4357 51.0803 6.49976 51.7065C7.57106 52.3387 8.79607 52.6656 10.0411 52.6516C10.6856 52.6522 11.3271 52.5643 11.9474 52.3903C12.1812 52.3246 12.7118 52.0753 13.5435 51.6438C14.2429 51.2745 14.7744 51.0903 15.1381 51.0913C15.357 51.0871 15.5729 51.1434 15.7616 51.2541C16.6698 51.8613 17.1239 52.4471 17.1239 53.0114C17.1239 53.3817 16.8906 53.7077 16.424 53.9894C14.9183 54.9012 13.1404 55.3571 11.0902 55.3571C9.60871 55.3411 8.13487 55.143 6.70208 54.7673C4.7548 54.2696 3.31457 53.6943 2.3814 53.0413C0.7938 51.9354 1.54867e-06 50.3811 1.54867e-06 48.3783C-0.0226337 46.4483 0.607708 44.5669 1.78942 43.0375C3.08727 41.3483 4.85172 40.2757 7.08274 39.8198Z" fill="#333333"/>
<path d="M18.4097 46.8538C18.3452 46.5897 18.2672 46.3291 18.1759 46.0729C18.1071 45.874 18.0806 45.663 18.098 45.4533C18.157 45.1789 18.2351 44.909 18.3318 44.6455C18.4432 44.3396 18.5216 44.0228 18.5656 43.7004C18.5857 43.0029 18.5647 42.305 18.5027 41.61C18.4407 40.6146 18.4097 39.9093 18.4097 39.4943C18.4097 38.1475 18.682 37.0615 19.2265 36.2363C19.5382 35.7814 20.1482 35.5534 21.0564 35.5524C21.6178 35.5509 22.1738 35.6616 22.6915 35.878C23.3908 36.4214 23.7021 36.9102 23.6251 37.3442C23.5712 37.6259 23.3429 38.4073 22.9402 39.6884C22.6185 40.6887 22.4577 41.4816 22.4577 42.0669C22.4451 42.6799 22.6463 43.2784 23.0272 43.7601C23.4068 44.2379 24.2111 44.4768 25.44 44.4768C26.0395 44.4768 26.4082 44.3469 26.5401 44.0856C26.9057 43.2614 27.0891 42.1664 27.0901 40.8007V38.4192C27.0794 37.7105 27.1296 37.0022 27.2399 36.302C27.3928 35.434 28.1002 35 29.3621 35C30.2103 35 30.7373 35.206 30.9432 35.6181C31.319 36.5035 31.5029 37.4581 31.4827 38.4192C31.4827 39.0045 31.3703 40.0467 31.1455 41.5458C30.9826 42.8707 30.9267 43.9129 30.9776 44.6724C31.0046 44.8217 31.2234 45.0785 31.6386 45.4368C32.0537 45.7952 32.274 46.0938 32.301 46.3327C32.3269 46.5318 32.2035 46.7433 31.9308 46.9673C31.7583 47.0923 31.6066 47.2434 31.4812 47.4152C31.3769 47.9408 31.3267 48.4756 31.3313 49.0114C31.3313 49.8146 31.5132 51.0141 31.8768 52.6098C32.2405 54.2054 32.4224 55.4158 32.4224 56.241C32.0882 56.3034 31.7492 56.3359 31.4092 56.338C30.1634 56.338 29.2422 55.7955 28.6457 54.7106C28.258 54.0138 27.9338 52.8302 27.6731 51.1599C27.3863 49.3802 27.114 48.1916 26.8563 47.5944C26.5985 46.9971 25.9236 46.6985 24.8316 46.6985C23.8984 46.6985 23.3404 46.8478 23.1575 47.1465C22.7855 47.6314 22.5933 48.2296 22.6135 48.8396C22.6135 49.2756 22.7174 49.9764 22.9252 50.9419C23.0976 51.6521 23.2015 52.3771 23.2355 53.107C23.2433 53.6334 23.1375 54.1553 22.9252 54.6374C21.3686 54.6812 20.2396 54.2362 19.5382 53.3026C19.0457 52.6058 18.7459 51.5417 18.639 50.1103L18.4097 46.8538Z" fill="#333333"/>
<path d="M37.1252 40.9919C37.2541 40.6664 37.5393 39.6351 37.9809 37.8982C38.2927 36.6828 38.7208 35.76 39.2653 35.1299C39.5521 34.7616 40.1101 34.577 40.9393 34.576C41.4319 34.576 41.7436 34.7064 41.8745 34.9672C42.7297 36.5081 43.5081 38.4188 44.2094 40.6992C44.7799 42.697 45.3509 44.7053 45.9224 46.7239C45.9224 46.8733 46.0963 47.0226 46.447 47.1793C46.7977 47.3361 47.024 47.478 47.1289 47.6198C47.2288 47.7567 47.2814 47.9223 47.2787 48.0916C47.2848 48.1639 47.2744 48.2365 47.2485 48.3042C47.2225 48.3719 47.1817 48.433 47.1289 48.4828C46.9257 48.8754 46.8189 49.3103 46.8171 49.752C46.8171 50.2497 47.0504 51.0425 47.517 52.1305C47.9586 53.1259 48.1275 53.9182 48.0236 54.5075C47.9237 55.1157 47.3527 55.4198 46.3106 55.4198C45.7396 55.4198 45.3125 55.2556 45.0262 54.9301C44.6635 54.518 44.3523 53.639 44.0925 52.2932C43.8847 51.1645 43.4436 50.4259 42.7692 50.0775C42.1432 49.8066 41.4658 49.6736 40.7835 49.6878C39.5635 49.6878 38.526 49.97 37.6707 50.5344C37.2811 50.7942 36.8529 51.7279 36.3864 53.3354C35.9967 54.724 35.3608 55.4208 34.4785 55.4258C34.0075 55.4069 33.5447 55.2963 33.1162 55.1003C33.0378 54.7914 32.9985 54.4738 32.9993 54.1552C32.9993 53.4823 33.1942 52.6362 33.5838 51.6169C34.1273 50.2064 34.4386 49.3603 34.5175 49.0786C35.2113 46.33 36.0823 43.6288 37.1252 40.9919ZM39.2653 43.9229C39.1039 44.4715 38.8958 45.0055 38.6434 45.519C38.3316 46.17 38.1758 46.6259 38.1758 46.8867C38.1696 47.0038 38.2 47.12 38.2628 47.2192C38.3256 47.3184 38.4177 47.3957 38.5265 47.4406C39.1073 47.6738 39.7304 47.7846 40.3563 47.7661C41.4184 47.7661 42.0409 47.5173 42.2237 47.0196C42.3551 46.6428 42.421 46.2464 42.4185 45.8475C42.4185 45.1308 42.1982 44.3056 41.7576 43.3719C41.6797 43.1728 41.2516 42.3805 40.4732 40.9949C39.9057 41.5802 39.5051 42.5562 39.2713 43.9229H39.2653Z" fill="#333333"/>
<path d="M49.275 53.3354C49.0843 53.1576 48.9721 52.9117 48.9632 52.6516C49.1191 51.5865 49.275 49.4041 49.4308 46.1043C49.5597 43.4167 49.832 41.2347 50.2476 39.5585C50.3255 39.2599 50.7147 39.1105 51.4151 39.1105C52.0645 39.1105 52.5186 39.219 52.7774 39.436C53.5827 40.3259 54.4129 41.819 55.2682 43.9154C56.1234 46.0117 56.9542 47.5048 57.7605 48.3947C57.9446 47.9667 58.0614 47.5129 58.1067 47.0494C58.1325 46.6048 58.1325 46.1591 58.1067 45.7146C58.0812 44.977 58.0677 44.5305 58.0677 44.3797C58.0677 43.6401 57.8679 42.5328 57.4682 41.0576C57.0686 39.5824 56.8688 38.475 56.8688 37.7354C56.8669 37.4078 56.893 37.0806 56.9467 36.7574C57.0466 36.2358 57.5786 35.9755 58.5428 35.9765C59.2422 35.9765 59.6703 36.1502 59.8271 36.4976C60.5016 37.9748 60.9297 39.7227 61.1115 41.7414C61.2114 42.7368 61.2614 44.5494 61.2614 47.1793C61.2614 49.416 60.7293 50.9793 59.6653 51.8692C59.3026 52.2395 58.7706 52.4241 58.0692 52.4231C57.4982 52.4231 57.0711 52.2738 56.7848 51.9991C56.0209 51.2279 55.3425 50.3768 54.7616 49.4608L53.1266 46.7896C52.7952 47.538 52.6354 48.3505 52.659 49.1681C52.659 49.407 52.672 49.7599 52.6979 50.2268C52.7234 50.6926 52.7369 51.0465 52.7369 51.2854C52.7519 51.9182 52.6674 52.5494 52.4866 53.1562C52.3178 53.6669 51.7922 53.9217 50.91 53.9207C50.2346 53.9207 49.6896 53.7256 49.275 53.3354Z" fill="#333333"/>
<path d="M62.4693 53.3354C62.2786 53.1576 62.1665 52.9116 62.1576 52.6516C62.3135 51.5865 62.4693 49.404 62.6252 46.1043C62.7541 43.4167 63.0263 41.2347 63.442 39.5585C63.5199 39.2598 63.909 39.1105 64.6094 39.1105C65.2589 39.1105 65.713 39.219 65.9717 39.436C66.777 40.3259 67.6073 41.819 68.4625 43.9154C69.3178 46.0117 70.1485 47.5048 70.9548 48.3947C71.139 47.9701 71.2567 47.52 71.304 47.0599C71.3298 46.6153 71.3298 46.1696 71.304 45.725C71.2785 44.9874 71.265 44.541 71.265 44.3902C71.265 43.6506 71.0652 42.5432 70.6656 41.068C70.2659 39.5928 70.0661 38.4854 70.0661 37.7458C70.0642 37.4182 70.0903 37.091 70.144 36.7678C70.244 36.2462 70.776 35.9859 71.7401 35.9869C72.4395 35.9869 72.8676 36.1606 73.0245 36.508C73.6989 37.9852 74.127 39.7332 74.3089 41.7518C74.4088 42.7472 74.4587 44.5599 74.4587 47.1898C74.4587 49.4264 73.9267 50.9897 72.8626 51.8796C72.5 52.2499 71.9679 52.4346 71.2665 52.4336C70.6956 52.4336 70.2684 52.2843 69.9822 52.0095C69.2182 51.2383 68.5399 50.3873 67.959 49.4712L66.3239 46.8001C65.9925 47.5484 65.8328 48.361 65.8563 49.1786C65.8563 49.4175 65.8693 49.7704 65.8953 50.2372C65.9208 50.703 65.9343 51.0569 65.9343 51.2958C65.9475 51.9254 65.8615 52.5532 65.6795 53.1562C65.5116 53.6669 64.9866 53.9217 64.1044 53.9207C63.429 53.9207 62.8839 53.7256 62.4693 53.3354Z" fill="#333333"/>
<path d="M76.0143 43.0106C75.9808 42.4811 75.8893 41.9569 75.7416 41.4473C75.593 40.9378 75.5015 40.4135 75.4688 39.884C75.4498 39.3762 75.6159 38.8787 75.9364 38.4835C77.1813 36.9903 79.0627 36.2413 81.5804 36.2363C83.4478 36.2363 85.0963 36.6927 86.5261 37.6055C86.6124 37.6538 86.6836 37.725 86.7318 37.8112C86.78 37.8974 86.8032 37.9952 86.7988 38.0938C86.7988 38.3327 86.649 38.5716 86.3492 38.8105C86.0393 39.0558 85.6695 39.2145 85.2777 39.2703C84.8101 39.3131 84.1741 39.2479 83.3699 39.0747C82.4866 38.8757 81.8642 38.7761 81.5025 38.7761C81.1325 38.7728 80.7643 38.8278 80.4115 38.9389C79.7121 39.1987 79.3624 39.7521 79.3624 40.5992C79.3769 40.9222 79.4159 41.2437 79.4793 41.5608C79.5442 41.8882 79.5833 42.2202 79.5962 42.5537C79.6137 42.9167 79.533 43.2777 79.3624 43.5989C79.8779 43.8378 80.5359 43.9572 81.3361 43.9572C81.5939 43.9572 81.9746 43.9408 82.4781 43.9079C82.9817 43.8751 83.3494 43.8587 83.5812 43.8587C84.9749 43.8587 85.8911 44.3255 86.3297 45.2592C85.8112 46.0416 84.7471 46.4432 83.1376 46.4641C81.3741 46.487 80.2716 46.6991 79.83 47.1002C79.3884 47.5014 79.1676 48.1578 79.1676 49.0696C79.1676 48.7879 79.2845 49.8192 79.5183 52.1633C79.8381 52.2299 80.1641 52.2629 80.4909 52.2619C81.451 52.2619 82.645 52.013 84.0727 51.5153C86.018 50.8434 87.1985 50.4637 87.6141 50.3761C87.7175 50.2671 87.9513 50.3656 88.3155 50.6747C88.3906 50.8837 88.4296 51.1038 88.4309 51.3257C88.4309 52.129 87.9768 52.672 87.0686 52.9547C85.6698 53.3887 84.282 53.8336 82.9053 54.2895C81.3207 54.7464 79.8934 54.953 78.6235 54.9092C78.1305 54.8659 77.6359 54.8271 77.1444 54.7942C76.6528 54.7614 76.365 54.5941 76.2871 54.2895C76.0109 53.5394 75.8792 52.7441 75.8989 51.9454C75.8989 51.6408 75.9184 51.1794 75.9574 50.5612C75.9964 49.9431 76.0158 49.4708 76.0158 49.1443C76.0278 48.4507 75.9359 47.7593 75.7431 47.0927C75.6362 46.8727 75.5056 46.6649 75.3534 46.4731C75.1446 46.2133 75.0407 45.9963 75.0417 45.8221C75.0411 45.7487 75.0558 45.6761 75.0849 45.6087C75.1141 45.5413 75.1571 45.4808 75.2111 45.4309L75.8105 44.9755C75.9464 44.7734 76.0143 44.1185 76.0143 43.0106Z" fill="#333333"/>
<path d="M89.2087 49.4922C89.2183 44.8915 89.7273 40.3054 90.7268 35.8138C90.8048 35.4883 91.07 35.2165 91.5241 34.9836C91.9638 34.7589 92.4508 34.6417 92.9449 34.6417C93.8791 34.6417 94.4111 34.9672 94.541 35.6182C94.6747 36.3159 94.74 37.025 94.7358 37.7354C94.7358 38.9508 94.489 40.7744 93.9954 43.2061C93.5019 45.6379 93.2556 47.4834 93.2566 48.7426C93.248 49.789 93.3918 50.8311 93.6837 51.8363C97.4334 51.8363 99.9936 51.5541 101.364 50.9897C101.985 50.6433 102.528 50.4696 102.995 50.4686C103.259 50.4653 103.521 50.5093 103.77 50.5985C104.7 51.4078 105.165 52.016 105.165 52.4231C105.167 52.506 105.139 52.5868 105.087 52.6516C103.738 53.9536 101.429 54.6155 98.1588 54.6374H95.9407C93.6308 54.6603 91.8274 54.9211 90.5305 55.4198C89.4664 54.8554 88.9344 53.9098 88.9344 52.5829C88.9486 52.0596 88.9942 51.5375 89.0708 51.0196C89.1459 50.5135 89.1919 50.0035 89.2087 49.4922Z" fill="#333333"/>
<path d="M111.635 48.7292C111.635 48.5759 111.624 47.2859 111.602 44.8591C111.579 43.3152 111.59 42.0251 111.635 40.9889C111.671 39.6632 111.791 38.3411 111.996 37.0307C112.196 35.8063 112.853 35.1942 113.967 35.1942C114.548 35.2138 115.109 35.4102 115.575 35.757C115.691 35.849 115.786 35.9645 115.854 36.0957C115.922 36.227 115.961 36.3711 115.969 36.5185C115.968 36.586 115.957 36.653 115.936 36.7171C115.28 38.6353 114.951 40.9396 114.951 43.6302C114.951 44.4903 115.006 46.0122 115.115 48.1962C115.202 50.1153 115.235 51.6258 115.214 52.7278C115.191 53.0816 114.809 53.2578 114.064 53.2578C113.722 53.2645 113.383 53.1849 113.08 53.0264C112.38 52.674 111.943 52.0563 111.767 51.1734C111.679 50.8031 111.635 49.9884 111.635 48.7292Z" fill="#333333"/>
<path d="M121.451 54.4523C121.32 54.4514 121.19 54.4195 121.073 54.3593C120.956 54.2991 120.855 54.2123 120.778 54.1059C120.61 53.9184 120.512 53.6791 120.5 53.428C120.455 52.8756 120.434 52.3022 120.434 51.7079C120.434 50.0536 120.603 47.5939 120.942 44.329C121.28 41.0641 121.45 38.6164 121.451 36.9859C121.451 36.7216 121.33 36.5887 121.09 36.5887C121.045 36.5887 120.63 36.7216 119.842 36.9859C119.426 37.1086 119.024 37.2748 118.643 37.4816C118.062 37.7683 117.619 37.9116 117.313 37.9116C117.147 37.9145 116.982 37.8821 116.829 37.8164C116.676 37.7508 116.538 37.6534 116.426 37.5309C116.309 37.4105 116.216 37.2682 116.154 37.1121C116.092 36.9561 116.062 36.7894 116.065 36.6216C116.065 35.9825 116.372 35.5082 116.985 35.1986C119.342 34.0272 121.935 33.4054 124.568 33.38H129.594C129.659 33.38 129.743 33.4786 129.856 33.6786C129.914 33.7929 129.979 33.9032 130.052 34.0086C130.114 34.1438 130.148 34.2901 130.151 34.4386C130.151 35.2081 129.648 35.7685 128.642 36.1199C128.51 36.1428 127.338 36.2423 125.127 36.4185C124.341 40.201 123.86 45.6534 123.684 52.7755C123.684 53.1279 123.405 53.4962 122.846 53.8804C122.288 54.2647 121.823 54.4553 121.451 54.4523Z" fill="#333333"/>
<g opacity="0.86">
<path d="M21.2992 62.648C21.391 62.0373 21.6936 61.4776 22.1549 61.0653C22.5341 60.7293 22.7919 60.5143 22.9297 60.4172C23.1874 60.2149 23.5014 60.0965 23.8289 60.0783C23.9702 60.0798 24.1094 60.1124 24.2366 60.1739C24.2849 60.1933 24.3256 60.2278 24.3527 60.2722C24.3797 60.3166 24.3915 60.3686 24.3865 60.4202C24.3861 60.4707 24.379 60.5209 24.3655 60.5695C24.3203 60.697 24.2494 60.8139 24.1571 60.913C24.0648 61.0122 23.9531 61.0914 23.8289 61.1459C23.3689 61.3654 23.1171 61.4893 23.0796 61.5162C22.5701 61.9004 22.3018 62.3115 22.2748 62.7495C22.2394 63.083 22.3152 63.4188 22.4906 63.7051C22.5928 63.8596 22.7412 63.9782 22.9148 64.044L23.4408 64.2187C23.5024 64.2468 23.5694 64.2611 23.6371 64.2605C23.787 64.2605 23.9893 64.162 24.2366 63.9619C24.4839 63.7618 24.6757 63.6633 24.8001 63.6633C24.8323 63.6548 24.8662 63.6545 24.8986 63.6625C24.931 63.6704 24.9608 63.6864 24.9855 63.7088C25.0101 63.7312 25.0286 63.7595 25.0394 63.7909C25.0503 63.8223 25.053 63.856 25.0474 63.8887C25.0398 64.0877 24.9753 64.2804 24.8615 64.4442C24.5938 64.8553 24.1776 65.0608 23.6131 65.0608C23.2665 65.0527 22.9226 64.9974 22.591 64.8966C22.1937 64.7907 21.8479 64.5459 21.6169 64.2068C21.3773 63.8597 21.2526 63.4468 21.2602 63.0257C21.2631 62.899 21.2761 62.7726 21.2992 62.648Z" fill="#696969"/>
<path d="M25.2857 61.9805C25.3027 61.6736 25.3566 61.3699 25.446 61.0757C25.5328 60.7917 25.5861 60.4985 25.6049 60.2022C25.6074 60.065 25.583 59.9285 25.5329 59.8006C25.4715 59.502 25.44 59.3422 25.44 59.3273C25.4366 59.2733 25.449 59.2195 25.4756 59.1723C25.5022 59.1252 25.5419 59.0867 25.5899 59.0615C25.9373 58.8491 26.3378 58.7384 26.7454 58.742C27.2256 58.7454 27.6959 58.8786 28.1062 59.1272C28.5355 59.3762 28.896 59.7277 29.1552 60.15C29.2339 60.2694 29.2766 60.4088 29.2781 60.5516C29.2781 60.9408 28.907 61.3828 28.1646 61.8775C28.3445 62.9406 28.6781 63.9722 29.1552 64.9399C29.1729 64.9677 29.1832 64.9996 29.1852 65.0324C29.1823 65.0774 29.1666 65.1205 29.1401 65.157C29.1136 65.1935 29.0773 65.2217 29.0353 65.2385C28.9306 65.2938 28.8137 65.322 28.6951 65.3206C28.5955 65.3262 28.497 65.2972 28.4164 65.2385C28.0997 64.9777 27.8499 64.5049 27.6671 63.82C27.4672 63.0795 27.2539 62.5818 27.0271 62.3269C26.9284 62.2479 26.8024 62.2109 26.6764 62.2239C26.4636 62.2239 26.3302 62.2747 26.2748 62.3732C26.2255 62.54 26.2013 62.713 26.2028 62.8868C26.2169 63.2104 26.2672 63.5315 26.3527 63.8439C26.4349 64.1572 26.49 64.4769 26.5176 64.7995C26.5176 64.8951 26.4486 64.9757 26.2913 65.0414C26.1452 65.1046 25.9836 65.1239 25.8267 65.0966C25.6917 65.0396 25.5842 64.9325 25.5269 64.798C25.3702 64.3514 25.2867 63.8825 25.2797 63.4094L25.2857 61.9805ZM26.4846 60.6367C26.4131 60.8197 26.3579 61.0085 26.3197 61.2011C26.3197 61.3504 26.4921 61.4176 26.8338 61.4176C27.3206 61.427 27.7932 61.2544 28.1586 60.9339C28.3085 60.8592 28.3834 60.7696 28.3834 60.6666C28.3819 60.6368 28.3714 60.6083 28.3534 60.5845C28.1007 60.0708 27.6076 59.7722 26.8743 59.6886C26.7169 59.6752 26.615 59.7916 26.567 60.038C26.543 60.247 26.5146 60.4456 26.4846 60.6442V60.6367Z" fill="#696969"/>
<path d="M30.531 60.7711C30.566 60.6716 30.6419 60.3461 30.7588 59.7946C30.8115 59.4835 30.9273 59.1863 31.099 58.9212C31.174 58.8047 31.3223 58.7465 31.5486 58.7465C31.679 58.7465 31.7614 58.7883 31.7959 58.8704C32.0567 59.4532 32.2638 60.0584 32.4149 60.6785C32.5657 61.3106 32.7156 61.9447 32.8645 62.5808C32.8645 62.6285 32.9109 62.6783 33.0038 62.7301C33.0747 62.7602 33.1367 62.8081 33.1837 62.8689C33.2119 62.9136 33.2265 62.9655 33.2256 63.0182C33.2275 63.0407 33.2247 63.0632 33.2174 63.0845C33.2102 63.1058 33.1987 63.1254 33.1837 63.1422C33.1301 63.2689 33.102 63.4048 33.1013 63.5423C33.1254 63.799 33.1881 64.0507 33.2871 64.2889C33.3907 64.5236 33.4369 64.7795 33.422 65.0354C33.3935 65.2281 33.2421 65.3236 32.9724 65.3236C32.9077 65.3284 32.8429 65.3173 32.7836 65.2912C32.7242 65.2652 32.6723 65.2251 32.6322 65.1743C32.5348 65.0429 32.4523 64.7667 32.3834 64.3411C32.3294 63.9848 32.2125 63.7519 32.0327 63.6424C31.8707 63.5574 31.6897 63.5148 31.5067 63.5184C31.2088 63.5104 30.9172 63.6048 30.6809 63.7857C30.579 63.8678 30.4651 64.1635 30.3407 64.6696C30.2408 65.1086 30.0724 65.3281 29.8356 65.3281C29.7089 65.3217 29.5854 65.2865 29.4745 65.2251C29.4532 65.1269 29.4427 65.0268 29.443 64.9265C29.4526 64.6537 29.5031 64.384 29.5929 64.1261C29.7367 63.6792 29.8192 63.4119 29.8401 63.3243C30.0222 62.461 30.2529 61.6086 30.531 60.7711ZM31.099 61.6968C31.0559 61.8682 31.0008 62.0363 30.9342 62.2C30.8701 62.3364 30.8281 62.4821 30.8098 62.6315C30.8069 62.6665 30.8142 62.7015 30.8306 62.7324C30.8471 62.7634 30.8721 62.789 30.9027 62.8062C31.0537 62.8795 31.2204 62.9149 31.3883 62.9093C31.67 62.9093 31.8379 62.8316 31.8828 62.6733C31.9176 62.553 31.9347 62.4283 31.9338 62.3031C31.9257 62.0327 31.8667 61.7663 31.7599 61.5177C31.7405 61.455 31.6266 61.2056 31.4197 60.7711C31.2689 60.9533 31.1625 61.2604 31.1005 61.6924L31.099 61.6968Z" fill="#696969"/>
<path d="M34.0095 61.0966C33.8342 60.4853 33.7543 59.8508 33.7727 59.2153C33.7754 59.1505 33.7967 59.0877 33.8341 59.0346C33.8761 58.9704 33.9165 58.9376 33.9585 58.9376C34.4354 58.7759 34.9406 58.7134 35.4428 58.754C35.9449 58.7946 36.4334 58.9374 36.8779 59.1735C36.9185 59.1861 36.9544 59.2104 36.9811 59.2433C37.0078 59.2763 37.0241 59.3164 37.0278 59.3586C37.0278 59.4885 36.9049 59.6304 36.6561 59.7797C36.553 59.8281 36.4404 59.8531 36.3264 59.8528C36.0826 59.824 35.8455 59.7543 35.625 59.6468C35.4016 59.5347 35.1524 59.4832 34.9027 59.4975C34.8815 59.6459 34.871 59.7956 34.8712 59.9454C34.8811 60.3165 34.9313 60.6855 35.0211 61.0458L35.2893 62.1254C35.4548 62.1283 35.6202 62.1178 35.7839 62.094C36.0516 62.0671 36.2375 62.0537 36.3414 62.0537C36.761 62.0537 36.9638 62.1975 36.9499 62.4852C36.9419 62.6703 36.732 62.7764 36.3204 62.8032C35.8708 62.8316 35.6265 62.8943 35.5711 62.9944C35.5233 63.092 35.4987 63.1993 35.4991 63.3079C35.5207 63.5489 35.5911 63.7831 35.706 63.9962C35.8178 64.2261 35.9145 64.463 35.9952 64.7055C36.0154 64.7579 36.0256 64.8136 36.0252 64.8697C36.026 64.9326 36.0109 64.9947 35.9813 65.0503C35.9517 65.1059 35.9086 65.1532 35.8558 65.1877C35.7471 65.2683 35.6152 65.3118 35.4797 65.3117C35.3753 65.3159 35.2728 65.2831 35.1904 65.2191C34.9971 65.0265 34.8502 64.6756 34.7408 64.165C34.6314 63.6543 34.5025 63.3034 34.3377 63.1198C34.3315 63.1062 34.3213 63.0949 34.3084 63.0874C34.2955 63.08 34.2806 63.0766 34.2657 63.078C34.2088 63.0855 34.1523 63.096 34.0964 63.1093C34.0206 63.1293 33.9414 63.1328 33.8641 63.1198C33.6708 63.072 33.5748 62.9705 33.5748 62.8316C33.5749 62.7766 33.5952 62.7235 33.6318 62.6823C33.7253 62.5921 33.8313 62.5157 33.9465 62.4553C34.0964 62.3673 34.1713 62.2881 34.1878 62.2194C34.2061 62.1487 34.2151 62.076 34.2148 62.0029C34.2092 61.8467 34.1846 61.6918 34.1413 61.5416C34.0949 61.3982 34.0499 61.2474 34.0095 61.0966Z" fill="#696969"/>
<path d="M38.7453 65.3206C38.7041 65.3204 38.6635 65.3105 38.6268 65.2919C38.5901 65.2732 38.5583 65.2462 38.5339 65.2131C38.4811 65.1551 38.4499 65.0808 38.4455 65.0026C38.432 64.8309 38.4245 64.6517 38.4245 64.4681C38.4245 63.9529 38.4785 63.19 38.5849 62.1746C38.6913 61.1593 38.7453 60.4008 38.7453 59.8932C38.7453 59.811 38.7078 59.7692 38.6314 59.7692C38.6179 59.7692 38.4815 59.811 38.2387 59.8932C38.1086 59.9303 37.9826 59.9803 37.8625 60.0425C37.7343 60.1162 37.5917 60.162 37.4444 60.1769C37.3925 60.1776 37.341 60.1675 37.2932 60.1471C37.2455 60.1268 37.2025 60.0968 37.1672 60.0589C37.1301 60.0216 37.1009 59.9773 37.0814 59.9285C37.0618 59.8798 37.0523 59.8277 37.0533 59.7752C37.0502 59.6801 37.0762 59.5864 37.1278 59.5063C37.1795 59.4263 37.2544 59.3639 37.3425 59.3273C38.0841 58.963 38.8986 58.7701 39.7254 58.7629H41.3035C41.3245 58.7629 41.3515 58.7942 41.3859 58.8555C41.4042 58.8906 41.4248 58.9245 41.4474 58.957C41.4671 58.9991 41.4778 59.0449 41.4788 59.0914C41.4788 59.3303 41.3205 59.504 41.0038 59.6125C40.9633 59.6199 40.5946 59.6513 39.9007 59.705C39.654 60.8796 39.5041 62.5718 39.4511 64.7816C39.4511 64.8906 39.3627 65.0056 39.1874 65.125C39.0625 65.2321 38.9087 65.3002 38.7453 65.3206Z" fill="#696969"/>
</g>
<g opacity="0.94">
<path d="M44.3668 65.8133C44.3114 65.7253 44.3009 65.5535 44.3353 65.2997C44.4361 64.8585 44.5602 64.4229 44.707 63.9947C44.8928 63.4259 44.9693 63.0018 44.9348 62.7196C44.8868 62.3573 44.6785 61.775 44.3099 60.9727C43.9412 60.1704 43.7334 59.5731 43.6864 59.1809C43.6776 59.1196 43.6881 59.057 43.7166 59.0019C43.745 58.9468 43.79 58.9019 43.8453 58.8734C43.9635 58.7868 44.1062 58.7398 44.2529 58.739C44.3306 58.733 44.4078 58.7553 44.4702 58.8017C44.67 58.9789 44.8489 59.377 45.0067 59.9962C45.1641 60.6531 45.326 61.0787 45.4908 61.2698C45.6017 61.1265 45.7516 60.7328 45.9404 60.0888C46.1068 59.5199 46.3016 59.1526 46.5294 58.9883C46.636 58.9072 46.7669 58.8641 46.9011 58.8659C47.1693 58.8659 47.3027 58.9615 47.3027 59.1526C47.3025 59.1913 47.2954 59.2298 47.2817 59.266C47.013 59.931 46.6213 60.8627 46.1068 62.0612C46.0722 62.1497 46.0545 62.2439 46.0543 62.3389C46.0551 62.5267 46.1207 62.7086 46.2401 62.854C46.2545 62.8688 46.2656 62.8864 46.2729 62.9056C46.2801 62.9249 46.2832 62.9454 46.2821 62.966C46.277 63.0737 46.2489 63.179 46.1997 63.2751C46.1119 63.3266 46.0183 63.3677 45.9209 63.3975C45.869 63.4102 45.8207 63.4344 45.7794 63.4683C45.7382 63.5021 45.7051 63.5448 45.6826 63.5931C45.5827 64.1007 45.4179 64.8204 45.1881 65.7521C45.1401 65.9104 44.9992 65.988 44.7655 65.988C44.6892 65.9994 44.6113 65.9891 44.5407 65.9582C44.4702 65.9273 44.4099 65.877 44.3668 65.8133Z" fill="#696969"/>
<path d="M49.7725 60.48C50.2471 60.48 50.6632 60.7094 51.0209 61.1683C51.3147 61.5401 51.4732 62.0001 51.4705 62.4733C51.4716 62.8477 51.3794 63.2166 51.2023 63.5468C51.0287 63.8807 50.7736 64.1657 50.4604 64.3755C50.1294 64.6041 49.7376 64.7293 49.3349 64.7353C48.9899 64.7396 48.653 64.631 48.3758 64.4263C47.8053 64.0162 47.52 63.4956 47.52 62.8645C47.52 62.3165 47.7613 61.7805 48.2469 61.2609C48.7324 60.7413 49.236 60.48 49.7725 60.48ZM48.6485 63.0287C48.7789 63.626 49.0307 63.9335 49.3979 63.9335C49.4907 63.9313 49.582 63.9099 49.6661 63.8708C50.1897 63.6319 50.4514 63.184 50.4514 62.527C50.4513 62.3713 50.4337 62.216 50.399 62.0642C50.3166 61.7506 50.0408 61.5924 49.5732 61.5924C49.5077 61.5922 49.4424 61.5992 49.3784 61.6133C49.2195 61.6471 49.0492 61.8462 48.8673 62.2105C48.6855 62.5748 48.6126 62.8476 48.6485 63.0287Z" fill="#696969"/>
<path d="M52.662 64.5905C52.0006 63.8987 51.6704 63.0028 51.6714 61.9029C51.6755 61.2836 51.7736 60.6685 51.9621 60.0783C52.0111 59.9331 52.105 59.8072 52.2304 59.7185C52.3543 59.6226 52.5066 59.5701 52.6635 59.5692C52.7739 59.5694 52.8829 59.5938 52.9827 59.6409C53.0377 59.6888 53.082 59.7478 53.1127 59.8139C53.1434 59.88 53.1599 59.9518 53.161 60.0246C53.1608 60.0629 53.1537 60.1008 53.1401 60.1366C52.8991 60.6881 52.7761 61.2835 52.7789 61.885C52.7789 62.8914 53.0956 63.5832 53.729 63.9604C53.8491 64.0375 53.988 64.0803 54.1307 64.0844C54.4124 64.0844 54.6612 63.8992 54.88 63.5289C55.0647 63.202 55.1838 62.8425 55.2307 62.4703C55.2881 62.2175 55.3157 61.959 55.3131 61.6998C55.3131 61.4878 55.2907 61.1658 55.2457 60.7338C55.2007 60.3023 55.1798 59.9798 55.1798 59.7678C55.1513 59.602 55.2412 59.4691 55.448 59.3766C55.6533 59.289 55.8673 59.2234 56.0865 59.181C56.0865 59.2362 56.1209 59.2765 56.1899 59.3049C56.2588 59.3333 56.2933 59.3601 56.2933 59.387C56.3753 59.9308 56.4204 60.4796 56.4282 61.0294C56.4282 62.1333 56.1699 63.0586 55.6533 63.8051C55.4162 64.1432 55.1097 64.4272 54.7541 64.6383C54.4126 64.8601 54.0166 64.9846 53.6091 64.9981C53.431 65.0031 53.2539 64.9691 53.0903 64.8987C52.9267 64.8283 52.7805 64.7231 52.662 64.5905Z" fill="#696969"/>
<path d="M56.6544 61.9805C56.6707 61.6736 56.7246 61.3697 56.8148 61.0757C56.9016 60.7917 56.9549 60.4986 56.9737 60.2022C56.9762 60.065 56.9518 59.9285 56.9017 59.8006C56.8403 59.502 56.8088 59.3422 56.8088 59.3273C56.8054 59.2733 56.8178 59.2195 56.8444 59.1724C56.871 59.1252 56.9107 59.0867 56.9587 59.0615C57.306 58.8489 57.7065 58.7382 58.1142 58.742C58.593 58.7468 59.0616 58.8805 59.4705 59.1287C59.9004 59.377 60.261 59.7286 60.5195 60.1515C60.5995 60.2704 60.6428 60.41 60.6439 60.5531C60.6439 60.9423 60.2728 61.3843 59.5304 61.879C59.7105 62.9419 60.0436 63.9733 60.5195 64.9414C60.5382 64.9688 60.5491 65.0008 60.551 65.034C60.5481 65.0789 60.5324 65.1221 60.5059 65.1585C60.4794 65.195 60.4431 65.2232 60.4011 65.24C60.2964 65.2953 60.1794 65.3235 60.0609 65.3221C59.9613 65.3279 59.8627 65.2989 59.7822 65.24C59.4655 64.9792 59.2157 64.5064 59.0328 63.8215C58.833 63.081 58.6197 62.5833 58.3929 62.3284C58.294 62.2499 58.1681 62.2129 58.0422 62.2254C57.8294 62.2254 57.6945 62.2762 57.6406 62.3747C57.5913 62.5415 57.5671 62.7145 57.5686 62.8884C57.5827 63.2119 57.633 63.533 57.7185 63.8454C57.7999 64.1589 57.8551 64.4785 57.8834 64.801C57.8834 64.8966 57.8144 64.9772 57.6556 65.0429C57.5148 65.1043 57.3593 65.1245 57.2075 65.1011C57.0724 65.0441 56.965 64.937 56.9077 64.8025C56.751 64.3559 56.6675 63.887 56.6604 63.4139L56.6544 61.9805ZM57.8534 60.6367C57.7819 60.8197 57.7267 61.0085 57.6885 61.2011C57.6885 61.3504 57.8594 61.4176 58.2026 61.4176C58.689 61.4275 59.1613 61.2548 59.5259 60.9339C59.6758 60.8592 59.7522 60.7696 59.7522 60.6666C59.7507 60.6369 59.7402 60.6083 59.7222 60.5845C59.4695 60.0709 58.9764 59.7722 58.243 59.6886C58.0857 59.6752 57.9838 59.7916 57.9358 60.038C57.9043 60.247 57.8774 60.4456 57.8504 60.6442L57.8534 60.6367Z" fill="#696969"/>
</g>
<g opacity="0.86">
<path d="M64.6064 64.8025C64.484 64.7574 64.3755 64.6813 64.2917 64.5816C64.2068 64.4943 64.1572 64.3789 64.1523 64.2575C64.1518 64.2242 64.1584 64.1911 64.1718 64.1605C64.2269 64.09 64.2932 64.029 64.3681 63.9798C64.4062 63.9578 64.4392 63.9281 64.465 63.8926C64.4908 63.8571 64.5089 63.8166 64.518 63.7738C64.539 62.9864 64.4635 61.7919 64.2917 60.1903C64.2805 60.1175 64.2482 60.0495 64.1988 59.9947L64.0339 59.7991V59.5766C64.0959 59.3367 64.2782 59.2168 64.5809 59.2168C64.6311 59.2166 64.6812 59.2201 64.7308 59.2273C65.1764 59.2131 65.6156 59.335 65.9897 59.5766C66.502 59.9157 66.9492 60.3435 67.31 60.8398C67.5774 61.1959 67.7219 61.6285 67.7222 62.0731C67.7135 62.6154 67.5331 63.1412 67.2066 63.5752C66.8966 64.0208 66.4778 64.3805 65.9897 64.6204C65.7047 64.778 65.3863 64.866 65.0605 64.8772C64.9059 64.8799 64.752 64.8546 64.6064 64.8025ZM65.4412 63.9544C65.4831 63.9544 65.5236 63.9544 65.5656 63.9544C65.8893 63.9544 66.165 63.7738 66.4003 63.4095C66.745 62.8824 66.9159 62.4613 66.9159 62.1463C66.9172 62.027 66.8964 61.9086 66.8544 61.7969C66.7282 61.4407 66.5233 61.1172 66.255 60.8503C65.988 60.5671 65.6302 60.3855 65.2434 60.3366C65.2434 60.6522 65.2643 61.2962 65.3063 62.2687C65.3553 63.3866 65.4002 63.9465 65.4412 63.9485V63.9544Z" fill="#696969"/>
<path d="M68.0309 63.5423C68.0309 63.4946 68.0309 63.0944 68.0204 62.3479C68.0204 61.8671 68.0204 61.4669 68.0309 61.1444C68.0424 60.7328 68.0805 60.3223 68.1448 59.9156C68.2062 59.5363 68.4131 59.3452 68.7637 59.3452C68.946 59.3511 69.1221 59.412 69.2688 59.5199C69.3051 59.5486 69.3349 59.5845 69.3564 59.6254C69.3778 59.6663 69.3904 59.7113 69.3932 59.7573C69.3925 59.7781 69.389 59.7987 69.3827 59.8185C69.1612 60.5123 69.0564 61.2378 69.0725 61.9656C69.0725 62.2329 69.0905 62.7047 69.1249 63.3841C69.1519 63.9813 69.1624 64.4502 69.1549 64.7921C69.1549 64.9011 69.0275 64.9563 68.7937 64.9563C68.6864 64.9585 68.5803 64.9338 68.485 64.8847C68.3748 64.8288 68.2797 64.7472 68.208 64.6469C68.1362 64.5465 68.0898 64.4304 68.0729 64.3083C68.035 64.0548 68.021 63.7984 68.0309 63.5423Z" fill="#696969"/>
<path d="M69.6809 63.9738C69.6089 63.6119 69.5713 63.2439 69.5685 62.8749C69.5685 61.6476 70.0017 60.7293 70.8679 60.1201C71.2093 59.8716 71.6215 59.7382 72.0444 59.7394C72.4739 59.7397 72.8928 59.8728 73.2433 60.1201C73.279 60.139 73.309 60.1669 73.3306 60.2009C73.3521 60.235 73.3644 60.274 73.3662 60.3142C73.3632 60.3797 73.341 60.4429 73.3024 60.4959C73.2637 60.549 73.2104 60.5896 73.1489 60.6129C73.0263 60.6691 72.8926 60.6972 72.7577 60.695C72.6119 60.6894 72.4669 60.6704 72.3246 60.6382C72.1822 60.6069 72.0372 60.5879 71.8915 60.5815C71.8144 60.5807 71.7377 60.5913 71.6637 60.6129C71.364 60.6885 71.0992 61.0309 70.8694 61.6401C70.6947 62.0902 70.6004 62.5672 70.5906 63.0496C70.5906 63.7464 70.8489 64.2157 71.3655 64.4576C71.4432 64.4923 71.5276 64.5096 71.6127 64.5084C71.69 64.5173 71.7682 64.5036 71.8377 64.4688C71.9072 64.4341 71.9649 64.3798 72.0039 64.3128C72.1194 64.116 72.2 63.9008 72.2422 63.6767C72.2437 63.6258 72.2321 63.5753 72.2085 63.5301C72.1849 63.4849 72.15 63.4464 72.1073 63.4184C71.908 63.3228 71.8076 63.2586 71.8076 63.2243C71.762 63.1651 71.7368 63.0928 71.7356 63.0183C71.7356 62.8122 71.941 62.651 72.3546 62.5345C72.4982 62.4946 72.6485 62.4842 72.7963 62.5037C72.9442 62.5232 73.0865 62.5723 73.2148 62.648C73.2886 62.6888 73.35 62.7485 73.3927 62.821C73.4354 62.8935 73.4578 62.976 73.4576 63.0601C73.455 63.1518 73.4341 63.2422 73.3962 63.3258C73.3962 63.3408 73.3617 63.3647 73.2928 63.399C73.2238 63.4333 73.1893 63.4572 73.1893 63.4707C73.1843 63.6371 73.1601 63.8024 73.1174 63.9634C73.0485 64.2307 73.0065 64.3949 72.993 64.4576C72.9677 64.5727 72.9017 64.675 72.8072 64.7458C72.6573 64.8951 72.5704 64.9742 72.5494 65.0026C72.4529 65.0654 72.3441 65.1072 72.2302 65.125C72.121 65.1376 72.0135 65.1616 71.9095 65.1967C71.7134 65.2785 71.503 65.3206 71.2905 65.3206C70.9122 65.3206 70.5464 65.1855 70.2594 64.9399C69.9561 64.6979 69.7506 64.3548 69.6809 63.9738Z" fill="#696969"/>
<path d="M73.7573 63.5423C73.7573 63.4946 73.7573 63.0944 73.7468 62.3479C73.7393 61.8671 73.7468 61.4669 73.7573 61.1444C73.7681 60.7328 73.8062 60.3222 73.8712 59.9156C73.9327 59.5363 74.138 59.3452 74.4902 59.3452C74.6724 59.3511 74.8486 59.412 74.9952 59.5199C75.0314 59.5486 75.0611 59.5846 75.0823 59.6255C75.1034 59.6664 75.1157 59.7113 75.1181 59.7573C75.118 59.778 75.1149 59.7986 75.1091 59.8185C74.8877 60.5123 74.7829 61.2378 74.7989 61.9656C74.7989 62.2329 74.8154 62.7047 74.8499 63.3841C74.8783 63.9813 74.8888 64.4502 74.8813 64.7921C74.8813 64.9011 74.754 64.9563 74.5202 64.9563C74.4128 64.9587 74.3067 64.934 74.2114 64.8847C74.1012 64.8287 74.006 64.7471 73.934 64.6468C73.862 64.5465 73.8153 64.4304 73.7978 64.3083C73.7616 64.0547 73.748 63.7984 73.7573 63.5423Z" fill="#696969"/>
<path d="M76.8401 65.3206C76.7989 65.3204 76.7583 65.3105 76.7216 65.2919C76.6849 65.2732 76.6531 65.2462 76.6288 65.2131C76.576 65.1551 76.5448 65.0808 76.5404 65.0026C76.5269 64.8309 76.5209 64.6517 76.5209 64.4681C76.5209 63.9529 76.5733 63.19 76.6797 62.1746C76.7862 61.1593 76.8401 60.4008 76.8401 59.8932C76.8401 59.811 76.8026 59.7692 76.7262 59.7692C76.7127 59.7692 76.5763 59.811 76.3351 59.8932C76.2044 59.93 76.0778 59.98 75.9574 60.0425C75.8295 60.116 75.6876 60.1618 75.5408 60.1769C75.4886 60.1777 75.4368 60.1676 75.3888 60.1473C75.3408 60.127 75.2976 60.0969 75.262 60.0589C75.2249 60.0216 75.1958 59.9773 75.1762 59.9285C75.1567 59.8798 75.1471 59.8277 75.1481 59.7752C75.145 59.6801 75.171 59.5864 75.2227 59.5063C75.2743 59.4263 75.3492 59.3639 75.4373 59.3273C76.179 58.963 76.9935 58.7701 77.8202 58.7629H79.3983C79.4193 58.7629 79.4463 58.7942 79.4808 58.8555C79.4986 58.8911 79.5197 58.9251 79.5437 58.957C79.5623 58.9994 79.5725 59.0451 79.5737 59.0914C79.5737 59.3303 79.4158 59.504 79.1001 59.6125C79.0582 59.6199 78.691 59.6513 77.9956 59.705C77.7488 60.8796 77.5989 62.5718 77.546 64.7816C77.546 64.8906 77.4591 65.0056 77.2837 65.125C77.1583 65.2322 77.004 65.3002 76.8401 65.3206Z" fill="#696969"/>
<path d="M80.8236 60.7711C80.8576 60.6716 80.9335 60.3461 81.0514 59.7946C81.1041 59.4835 81.2198 59.1863 81.3916 58.9212C81.468 58.8047 81.6149 58.7465 81.8412 58.7465C81.9716 58.7465 82.054 58.7883 82.0885 58.8704C82.3492 59.4532 82.5564 60.0584 82.7074 60.6785C82.8583 61.3106 83.0082 61.9447 83.157 62.5808C83.157 62.6285 83.2035 62.6783 83.2964 62.7301C83.3675 62.7606 83.4298 62.8084 83.4777 62.8689C83.5048 62.914 83.5189 62.9657 83.5182 63.0182C83.5216 63.0633 83.507 63.1078 83.4777 63.1422C83.4227 63.2685 83.3942 63.4047 83.3938 63.5423C83.418 63.799 83.4806 64.0507 83.5796 64.2889C83.6832 64.5236 83.7294 64.7795 83.7145 65.0354C83.6861 65.2281 83.5362 65.3236 83.2649 65.3236C83.2003 65.3284 83.1354 65.3173 83.0761 65.2912C83.0168 65.2652 82.9648 65.2251 82.9247 65.1743C82.8273 65.0429 82.7449 64.7667 82.6774 64.3411C82.6225 63.9848 82.5051 63.7519 82.3253 63.6424C82.1638 63.5574 81.9833 63.5148 81.8007 63.5184C81.5028 63.5102 81.2111 63.6046 80.975 63.7857C80.8715 63.8678 80.7576 64.1635 80.6332 64.6696C80.5313 65.1086 80.362 65.3281 80.1282 65.3281C80.0015 65.3217 79.8779 65.2865 79.767 65.2251C79.7463 65.1269 79.7362 65.0268 79.737 64.9265C79.7465 64.6537 79.797 64.3839 79.8869 64.1261C80.0308 63.6792 80.1132 63.4119 80.1342 63.3243C80.3165 62.4612 80.5467 61.6089 80.8236 60.7711ZM81.3916 61.6968C81.3484 61.8682 81.2933 62.0363 81.2267 62.2C81.1627 62.3364 81.1207 62.4821 81.1023 62.6315C81.0995 62.6665 81.1067 62.7015 81.1232 62.7324C81.1396 62.7634 81.1647 62.789 81.1953 62.8062C81.3463 62.8795 81.513 62.9149 81.6808 62.9093C81.9626 62.9093 82.1304 62.8316 82.1754 62.6733C82.2106 62.5531 82.2283 62.4284 82.2278 62.3031C82.2187 62.0341 82.1593 61.7693 82.0525 61.5222C82.0315 61.4594 81.9176 61.2101 81.7108 60.7756C81.5609 60.9548 81.4545 61.2604 81.3916 61.6924V61.6968Z" fill="#696969"/>
<path d="M83.9288 63.4498C83.9314 62.0002 84.0669 60.5538 84.3335 59.1287C84.3479 59.0724 84.3742 59.0199 84.4106 58.9746C84.4471 58.9292 84.4928 58.8922 84.5448 58.8659C84.6579 58.7963 84.788 58.7591 84.921 58.7584C85.1697 58.7584 85.3091 58.8614 85.3451 59.066C85.3798 59.2873 85.3968 59.511 85.3961 59.7349C85.3749 60.3144 85.3093 60.8914 85.1997 61.461C85.0893 62.0379 85.0237 62.6224 85.0034 63.2094C85.0007 63.5383 85.039 63.8663 85.1173 64.1859C86.1104 64.1859 86.7888 64.0968 87.1525 63.9186C87.2776 63.8228 87.4282 63.7657 87.5856 63.7544C87.6561 63.7534 87.7261 63.7672 87.7909 63.7947C88.0382 64.0485 88.1611 64.2426 88.1611 64.371C88.1613 64.3964 88.154 64.4214 88.1401 64.4427C87.7824 64.8538 87.1705 65.0628 86.3043 65.0698H85.7153C85.2258 65.0533 84.7381 65.1371 84.2825 65.3162C83.9998 65.138 83.8584 64.8394 83.8584 64.4203C83.8584 64.3113 83.8704 64.1456 83.8944 63.9276C83.9184 63.7096 83.9288 63.5528 83.9288 63.4498Z" fill="#696969"/>
</g>
<g opacity="0.85">
<path d="M90.2218 63.4498C90.2248 62.0001 90.3608 60.5537 90.6279 59.1287C90.6423 59.0724 90.6686 59.0199 90.7051 58.9746C90.7415 58.9292 90.7872 58.8922 90.8392 58.8659C90.9528 58.7962 91.0835 58.759 91.2169 58.7584C91.4642 58.7584 91.6051 58.8614 91.6395 59.066C91.6749 59.2872 91.692 59.5109 91.6905 59.7349C91.67 60.3144 91.6049 60.8914 91.4956 61.461C91.3845 62.0378 91.3189 62.6224 91.2993 63.2094C91.2969 63.5382 91.3347 63.8661 91.4117 64.1859C92.4068 64.1859 93.0843 64.0963 93.4484 63.9186C93.5731 63.8229 93.7231 63.7658 93.88 63.7544C93.9506 63.7534 94.0205 63.7672 94.0854 63.7947C94.3326 64.0485 94.4555 64.2426 94.4555 64.371C94.4564 64.3965 94.4491 64.4217 94.4346 64.4427C94.0779 64.8538 93.4659 65.0628 92.5987 65.0698H92.0067C91.5167 65.0531 91.0286 65.137 90.5725 65.3162C90.2907 65.138 90.1498 64.8394 90.1498 64.4203C90.1498 64.3113 90.1618 64.1456 90.1858 63.9276C90.2098 63.7096 90.2218 63.5528 90.2218 63.4498Z" fill="#696969"/>
<path d="M94.8647 61.4042C94.8561 61.2381 94.832 61.0732 94.7927 60.9115C94.7525 60.7495 94.7279 60.584 94.7193 60.4173C94.7119 60.2586 94.7555 60.1017 94.8437 59.9694C95.1734 59.4966 95.673 59.2601 96.3424 59.2601C96.8153 59.2528 97.2769 59.4048 97.6522 59.6917C97.6756 59.7089 97.6944 59.7314 97.7072 59.7574C97.72 59.7834 97.7263 59.812 97.7256 59.841C97.7223 59.8847 97.7099 59.9273 97.6893 59.9661C97.6686 60.0049 97.6402 60.0391 97.6058 60.0664C97.5291 60.1442 97.4301 60.1963 97.3225 60.2157C97.1518 60.2254 96.9808 60.2047 96.8175 60.1545C96.656 60.1056 96.4897 60.0746 96.3214 60.0619C96.223 60.0614 96.1255 60.0791 96.0336 60.1142C95.8478 60.1968 95.7549 60.3715 95.7549 60.6383C95.759 60.7383 95.769 60.838 95.7849 60.9369C95.8024 61.0406 95.8129 61.1454 95.8163 61.2505C95.821 61.3632 95.8 61.4755 95.7549 61.5789C95.9166 61.6607 96.0967 61.6997 96.2779 61.6924C96.3454 61.6924 96.4473 61.6924 96.5777 61.676C96.7081 61.6596 96.8085 61.6611 96.8699 61.6611C97.2386 61.6611 97.4814 61.8104 97.5983 62.109C97.4604 62.3549 97.1781 62.4818 96.7515 62.4897C96.2839 62.4972 95.9917 62.5629 95.8748 62.6898C95.7416 62.8689 95.6792 63.0905 95.6994 63.3124C95.6994 63.2229 95.7304 63.5484 95.7924 64.2889C95.8768 64.3088 95.9633 64.3188 96.0501 64.3188C96.379 64.301 96.7015 64.221 97.0003 64.0829C97.5158 63.8709 97.8291 63.7499 97.9385 63.7231C97.9669 63.6887 98.0284 63.7231 98.1243 63.8156C98.1449 63.8819 98.1555 63.9508 98.1558 64.0202C98.1623 64.134 98.1303 64.2467 98.0648 64.3401C97.9993 64.4335 97.9041 64.5023 97.7946 64.5353C97.4229 64.6727 97.0547 64.813 96.6901 64.9564C96.3272 65.0905 95.9426 65.1568 95.5556 65.152C95.4252 65.1385 95.2933 65.1266 95.1629 65.1161C95.0325 65.1057 94.9576 65.0519 94.9366 64.9564C94.8621 64.7147 94.8272 64.4626 94.8332 64.2098C94.8332 64.1143 94.8332 63.9694 94.8482 63.7738C94.8632 63.5782 94.8647 63.4289 94.8647 63.3259C94.868 63.1082 94.8438 62.891 94.7927 62.6794C94.7646 62.611 94.73 62.5455 94.6893 62.4838C94.6427 62.4243 94.6141 62.3528 94.6069 62.2777C94.6061 62.233 94.6215 62.1895 94.6504 62.1553L94.8002 62.006C94.8452 61.9657 94.8647 61.7536 94.8647 61.4042Z" fill="#696969"/>
<path d="M98.4435 63.9738C98.3715 63.6119 98.3339 63.2439 98.3311 62.8749C98.3311 61.6476 98.7642 60.7293 99.6305 60.1201C99.9719 59.8716 100.384 59.7382 100.807 59.7394C101.236 59.7399 101.655 59.8729 102.006 60.1201C102.042 60.139 102.072 60.1669 102.093 60.2009C102.115 60.235 102.127 60.274 102.129 60.3142C102.126 60.3797 102.104 60.4429 102.065 60.4959C102.026 60.549 101.973 60.5896 101.911 60.6129C101.789 60.6691 101.655 60.6972 101.52 60.695C101.374 60.6894 101.229 60.6704 101.087 60.6382C100.945 60.6069 100.8 60.5879 100.654 60.5815C100.577 60.5807 100.5 60.5913 100.426 60.6129C100.127 60.6885 99.8618 61.0309 99.632 61.6401C99.4573 62.0902 99.3629 62.5672 99.3532 63.0496C99.3532 63.7464 99.6115 64.2157 100.128 64.4576C100.204 64.4899 100.286 64.5057 100.369 64.5039C100.447 64.5129 100.525 64.4991 100.594 64.4644C100.664 64.4296 100.722 64.3754 100.76 64.3083C100.876 64.1115 100.957 63.8963 100.999 63.6722C101 63.6213 100.989 63.5708 100.965 63.5256C100.941 63.4804 100.907 63.4419 100.864 63.4139C100.665 63.3184 100.564 63.2542 100.564 63.2198C100.519 63.1606 100.493 63.0884 100.492 63.0138C100.492 62.8077 100.698 62.6465 101.111 62.53C101.255 62.4902 101.405 62.4797 101.553 62.4992C101.701 62.5187 101.843 62.5678 101.971 62.6435C102.045 62.6843 102.107 62.7441 102.149 62.8165C102.192 62.889 102.214 62.9715 102.214 63.0556C102.212 63.1474 102.191 63.2377 102.153 63.3214C102.153 63.3363 102.118 63.3602 102.049 63.3945C101.98 63.4289 101.946 63.4528 101.946 63.4662C101.941 63.6326 101.917 63.7979 101.874 63.9589C101.805 64.2262 101.763 64.3904 101.75 64.4531C101.724 64.5682 101.658 64.6705 101.564 64.7413C101.414 64.8906 101.327 64.9698 101.306 64.9981C101.209 65.061 101.101 65.1027 100.987 65.1206C100.878 65.1331 100.77 65.1571 100.666 65.1922C100.47 65.274 100.26 65.3162 100.047 65.3162C99.6688 65.3161 99.303 65.181 99.016 64.9354C98.7158 64.6935 98.5126 64.3523 98.4435 63.9738Z" fill="#696969"/>
<path d="M103.469 60.7711C103.503 60.6681 103.578 60.3426 103.696 59.7946C103.748 59.4833 103.864 59.1859 104.037 58.9212C104.111 58.8047 104.26 58.7465 104.486 58.7465C104.617 58.7465 104.699 58.7883 104.733 58.8704C104.994 59.4535 105.201 60.0586 105.352 60.6785C105.503 61.3106 105.653 61.9447 105.802 62.5808C105.802 62.6285 105.848 62.6783 105.941 62.7301C106.012 62.7602 106.074 62.8081 106.121 62.8689C106.149 62.9136 106.164 62.9655 106.163 63.0182C106.165 63.0407 106.162 63.0632 106.155 63.0845C106.148 63.1058 106.136 63.1254 106.121 63.1422C106.068 63.2689 106.04 63.4048 106.039 63.5423C106.063 63.799 106.126 64.0507 106.225 64.2889C106.328 64.5236 106.374 64.7795 106.36 65.0354C106.331 65.2281 106.18 65.3236 105.91 65.3236C105.845 65.3284 105.78 65.3173 105.721 65.2912C105.662 65.2652 105.61 65.2251 105.57 65.1743C105.472 65.0429 105.39 64.7667 105.321 64.3411C105.267 63.9848 105.15 63.7519 104.97 63.6424C104.808 63.5574 104.627 63.5148 104.444 63.5184C104.146 63.5104 103.855 63.6048 103.618 63.7857C103.517 63.8678 103.403 64.1635 103.278 64.6696C103.178 65.1086 103.01 65.3281 102.773 65.3281C102.646 65.3217 102.523 65.2865 102.412 65.2251C102.391 65.1269 102.38 65.0268 102.381 64.9265C102.391 64.6538 102.441 64.3841 102.53 64.1261C102.676 63.6792 102.759 63.4119 102.779 63.3243C102.961 62.4611 103.191 61.6087 103.469 60.7711ZM104.037 61.6968C103.993 61.8682 103.938 62.0363 103.872 62.2C103.807 62.3362 103.765 62.4819 103.747 62.6315C103.744 62.6665 103.751 62.7015 103.768 62.7325C103.784 62.7635 103.81 62.7891 103.84 62.8062C103.991 62.8793 104.157 62.9147 104.324 62.9093C104.608 62.9093 104.774 62.8316 104.82 62.6733C104.855 62.553 104.872 62.4283 104.871 62.3031C104.862 62.0341 104.803 61.7693 104.696 61.5222C104.675 61.4594 104.563 61.2101 104.356 60.7756C104.205 60.9548 104.099 61.2604 104.037 61.6924V61.6968Z" fill="#696969"/>
<path d="M108.338 60.3964C108.514 60.3562 108.694 60.3357 108.874 60.3351C109.2 60.3471 109.523 60.4023 109.835 60.4994C110.096 60.5755 110.226 60.7189 110.226 60.9324C110.225 60.9908 110.207 61.0478 110.175 61.0966C110.146 61.148 110.107 61.1927 110.06 61.2279C110.013 61.2632 109.958 61.2881 109.901 61.3012C109.774 61.3355 109.652 61.3669 109.535 61.3938C109.465 61.4149 109.392 61.4255 109.318 61.4251C109.189 61.4193 109.062 61.4002 108.937 61.3684C108.819 61.3378 108.698 61.3188 108.576 61.3116C108.52 61.3105 108.463 61.3212 108.411 61.343C107.812 61.549 107.512 62.0149 107.512 62.7405C107.512 62.9494 107.543 63.1572 107.603 63.3572C107.702 63.6783 107.905 63.957 108.182 64.1485C108.455 64.3445 108.784 64.4491 109.12 64.4472C109.292 64.4467 109.463 64.419 109.627 64.3651C109.774 64.2974 109.915 64.218 110.049 64.1276C110.173 64.035 110.319 63.9749 110.472 63.953C110.531 63.9522 110.589 63.9705 110.637 64.0052C110.878 64.1963 110.998 64.3815 110.998 64.5606C110.995 64.6233 110.976 64.6841 110.944 64.7378C110.912 64.7915 110.866 64.8363 110.812 64.8682C110.4 65.1604 109.904 65.3117 109.399 65.2997C109.003 65.2952 108.61 65.2328 108.233 65.1146C107.82 65.0076 107.431 64.8225 107.088 64.5696C106.668 64.2202 106.458 63.7305 106.458 63.1004C106.449 62.5044 106.614 61.9186 106.934 61.4147C107.089 61.1611 107.293 60.9406 107.534 60.7658C107.775 60.5911 108.048 60.4655 108.338 60.3964Z" fill="#696969"/>
<path d="M111.804 65.8134C111.743 65.649 111.732 65.4701 111.774 65.2997C111.874 64.8584 111.998 64.4227 112.146 63.9948C112.33 63.4259 112.407 63.0018 112.372 62.7196C112.324 62.3573 112.116 61.775 111.747 60.9727C111.379 60.1704 111.171 59.5732 111.124 59.181C111.115 59.1195 111.126 59.0568 111.155 59.0016C111.183 58.9465 111.229 58.9017 111.284 58.8734C111.402 58.7867 111.545 58.7396 111.692 58.739C111.769 58.7332 111.846 58.7554 111.908 58.8017C112.107 58.9794 112.287 59.3796 112.444 59.9962C112.603 60.6532 112.765 61.0787 112.93 61.2698C113.04 61.1265 113.189 60.7328 113.379 60.0888C113.544 59.5204 113.74 59.1536 113.967 58.9884C114.073 58.9073 114.204 58.8642 114.338 58.8659C114.607 58.8659 114.74 58.9615 114.74 59.1526C114.74 59.1912 114.733 59.2295 114.721 59.2661C114.452 59.931 114.06 60.8627 113.544 62.0612C113.51 62.1498 113.493 62.244 113.493 62.3389C113.494 62.5265 113.559 62.7082 113.678 62.854C113.692 62.8688 113.703 62.8864 113.71 62.9057C113.717 62.9249 113.721 62.9455 113.72 62.966C113.715 63.0738 113.687 63.1793 113.637 63.2751C113.549 63.3269 113.456 63.368 113.358 63.3975C113.307 63.4103 113.258 63.4345 113.217 63.4683C113.176 63.5022 113.144 63.5449 113.122 63.5931C113.022 64.1008 112.856 64.8205 112.625 65.7522C112.578 65.9104 112.437 65.9881 112.203 65.9881C112.127 65.9995 112.049 65.9891 111.978 65.9582C111.908 65.9273 111.847 65.8771 111.804 65.8134Z" fill="#696969"/>
</g>
</g>
<defs>
<clipPath id="clip0_67_11756">
<rect width="133" height="66" fill="white"/>
</clipPath>
</defs>
</svg>
