<svg width="83" height="44" viewBox="0 0 83 44" fill="none" xmlns="http://www.w3.org/2000/svg">
<g clip-path="url(#clip0_231_6)">
<path d="M71.1025 20.4984C75.679 20.4984 79.3889 16.5499 79.3889 11.6791C79.3889 6.80834 75.679 2.8598 71.1025 2.8598C66.526 2.8598 62.8161 6.80834 62.8161 11.6791C62.8161 16.5499 66.526 20.4984 71.1025 20.4984Z" fill="#4C6EB5"/>
<path opacity="0.86" d="M67.1276 15.2546C70.3746 15.2546 73.0067 12.4532 73.0067 8.99749C73.0067 5.54177 70.3746 2.74036 67.1276 2.74036C63.8807 2.74036 61.2486 5.54177 61.2486 8.99749C61.2486 12.4532 63.8807 15.2546 67.1276 15.2546Z" fill="#FCB75F"/>
<path opacity="0.86" d="M73.7904 16.9229C77.4702 16.9229 80.4533 13.748 80.4533 9.83164C80.4533 5.91523 77.4702 2.74036 73.7904 2.74036C70.1107 2.74036 67.1276 5.91523 67.1276 9.83164C67.1276 13.748 70.1107 16.9229 73.7904 16.9229Z" fill="#7757A4"/>
<path opacity="0.85" d="M67.743 20.3193C70.4641 20.3193 72.67 17.9715 72.67 15.0755C72.67 12.1794 70.4641 9.83167 67.743 9.83167C65.0219 9.83167 62.8161 12.1794 62.8161 15.0755C62.8161 17.9715 65.0219 20.3193 67.743 20.3193Z" fill="#F2737E"/>
<path d="M70.6545 2.1461C71.2113 2.1461 71.6627 1.66568 71.6627 1.07305C71.6627 0.480421 71.2113 0 70.6545 0C70.0977 0 69.6463 0.480421 69.6463 1.07305C69.6463 1.66568 70.0977 2.1461 70.6545 2.1461Z" fill="#F48592"/>
<path d="M60.087 14.4504C60.806 14.4504 61.3889 13.83 61.3889 13.0647C61.3889 12.2995 60.806 11.6791 60.087 11.6791C59.368 11.6791 58.7851 12.2995 58.7851 13.0647C58.7851 13.83 59.368 14.4504 60.087 14.4504Z" fill="#4C6EB5"/>
<path opacity="0.85" d="M61.3889 15.7901C61.7597 15.7901 62.0604 15.4701 62.0604 15.0754C62.0604 14.6807 61.7597 14.3607 61.3889 14.3607C61.018 14.3607 60.7173 14.6807 60.7173 15.0754C60.7173 15.4701 61.018 15.7901 61.3889 15.7901Z" fill="#F2737E"/>
<path d="M78.941 18.7396C79.3583 18.7396 79.6967 18.3795 79.6967 17.9353C79.6967 17.4911 79.3583 17.131 78.941 17.131C78.5236 17.131 78.1853 17.4911 78.1853 17.9353C78.1853 18.3795 78.5236 18.7396 78.941 18.7396Z" fill="#FCB75F"/>
<path opacity="0.94" d="M81.9085 10.9933C82.5113 10.9933 83 10.4732 83 9.83162C83 9.19007 82.5113 8.66998 81.9085 8.66998C81.3057 8.66998 80.8171 9.19007 80.8171 9.83162C80.8171 10.4732 81.3057 10.9933 81.9085 10.9933Z" fill="#7757A4"/>
<path d="M4.42006 26.5465C4.83629 26.4597 5.25945 26.4161 5.6836 26.4161C6.28217 26.4161 7.03506 26.5319 7.94226 26.7635C8.55766 26.9228 8.86537 27.2267 8.86537 27.6753C8.86182 27.8022 8.81909 27.9243 8.74378 28.0227C8.66945 28.1374 8.57415 28.2349 8.46359 28.3095C8.35303 28.3841 8.22948 28.4341 8.10032 28.4567C7.8001 28.5294 7.51298 28.5951 7.23801 28.6558C7.07134 28.7002 6.9001 28.7223 6.72829 28.7215C6.42596 28.7101 6.12519 28.6701 5.8295 28.6021C5.54978 28.5368 5.26538 28.4969 4.97935 28.4826C4.84705 28.4802 4.71538 28.5025 4.59028 28.5483C3.18177 28.9823 2.47752 29.9664 2.47752 31.5007C2.47935 31.9448 2.55307 32.3852 2.69543 32.8027C2.9386 33.4975 3.3922 34.0536 4.05624 34.471C4.7248 34.8925 5.48928 35.1104 6.26627 35.1011C6.66846 35.1015 7.06878 35.0429 7.45592 34.9269C7.60183 34.8831 7.93291 34.7168 8.45198 34.4292C8.88844 34.183 9.22014 34.0602 9.4471 34.0609C9.58372 34.058 9.7184 34.0956 9.83617 34.1694C10.4029 34.5742 10.6863 34.9647 10.6863 35.341C10.6863 35.5878 10.5407 35.8052 10.2496 35.993C9.30993 36.6008 8.20039 36.9047 6.92095 36.9047C5.99642 36.8941 5.07665 36.762 4.1825 36.5116C2.96728 36.1798 2.06849 35.7962 1.48614 35.3609C0.495379 34.6236 1.36799e-06 33.5874 1.36799e-06 32.2522C-0.0141244 30.9655 0.379247 29.7113 1.11671 28.6916C1.92664 27.5655 3.02776 26.8505 4.42006 26.5465Z" fill="#333333"/>
<path d="M11.4888 31.2359C11.4485 31.0598 11.3998 30.8861 11.3429 30.7153C11.2999 30.5827 11.2834 30.442 11.2943 30.3022C11.331 30.1193 11.3798 29.9394 11.4402 29.7637C11.5097 29.5598 11.5586 29.3486 11.5861 29.1336C11.5986 28.6687 11.5855 28.2033 11.5468 27.74C11.5081 27.0764 11.4888 26.6063 11.4888 26.3295C11.4888 25.4317 11.6587 24.7077 11.9985 24.1576C12.1931 23.8543 12.5737 23.7023 13.1405 23.7017C13.4908 23.7006 13.8378 23.7744 14.1608 23.9187C14.5973 24.281 14.7915 24.6068 14.7435 24.8962C14.7098 25.084 14.5674 25.6049 14.3161 26.4589C14.1153 27.1259 14.0149 27.6544 14.0149 28.0446C14.0071 28.4533 14.1327 28.8523 14.3703 29.1734C14.6073 29.492 15.1092 29.6512 15.8761 29.6512C16.2502 29.6512 16.4803 29.5646 16.5626 29.3904C16.7908 28.841 16.9052 28.111 16.9058 27.2005V25.6129C16.8992 25.1404 16.9305 24.6682 16.9994 24.2014C17.0948 23.6227 17.5362 23.3334 18.3237 23.3334C18.8531 23.3334 19.182 23.4707 19.3104 23.7455C19.545 24.3357 19.6597 24.9721 19.6471 25.6129C19.6471 26.0031 19.577 26.6978 19.4367 27.6972C19.335 28.5805 19.3001 29.2753 19.3319 29.7816C19.3488 29.8812 19.4853 30.0524 19.7444 30.2913C20.0034 30.5302 20.1409 30.7292 20.1578 30.8885C20.174 31.0212 20.097 31.1622 19.9267 31.3116C19.8191 31.3949 19.7245 31.4956 19.6462 31.6102C19.5811 31.9606 19.5498 32.3171 19.5526 32.6743C19.5526 33.2098 19.6661 34.0095 19.8931 35.0732C20.12 36.137 20.2335 36.9439 20.2335 37.494C20.025 37.5356 19.8134 37.5573 19.6013 37.5587C18.8238 37.5587 18.2489 37.1971 17.8766 36.4737C17.6347 36.0092 17.4324 35.2202 17.2697 34.1067C17.0907 32.9201 16.9208 32.1278 16.7599 31.7296C16.5991 31.3315 16.1779 31.1324 15.4964 31.1324C14.914 31.1324 14.5658 31.2319 14.4517 31.431C14.2195 31.7543 14.0996 32.1531 14.1122 32.5598C14.1122 32.8505 14.1771 33.3176 14.3067 33.9613C14.4143 34.4348 14.4791 34.9181 14.5003 35.4047C14.5053 35.7556 14.4392 36.1036 14.3067 36.425C13.3353 36.4542 12.6308 36.1575 12.193 35.5351C11.8857 35.0706 11.6986 34.3612 11.6319 33.4069L11.4888 31.2359Z" fill="#333333"/>
<path d="M23.1684 27.3279C23.2488 27.1109 23.4268 26.4234 23.7024 25.2654C23.8969 24.4552 24.1641 23.84 24.5039 23.42C24.6829 23.1744 25.0311 23.0513 25.5486 23.0507C25.856 23.0507 26.0505 23.1376 26.1322 23.3115C26.6659 24.3387 27.1516 25.6125 27.5893 27.1328C27.9454 28.4647 28.3017 29.8035 28.6584 31.1493C28.6584 31.2488 28.7668 31.3484 28.9857 31.4529C29.2046 31.5574 29.3458 31.652 29.4112 31.7465C29.4736 31.8378 29.5065 31.9482 29.5048 32.0611C29.5085 32.1092 29.5021 32.1577 29.4859 32.2028C29.4697 32.248 29.4442 32.2886 29.4112 32.3219C29.2845 32.5836 29.2178 32.8735 29.2167 33.168C29.2167 33.4998 29.3623 34.0283 29.6535 34.7537C29.9291 35.4173 30.0344 35.9455 29.9696 36.3384C29.9072 36.7438 29.5509 36.9465 28.9006 36.9465C28.5443 36.9465 28.2777 36.8371 28.0991 36.6201C27.8727 36.3453 27.6785 35.7594 27.5164 34.8622C27.3867 34.1096 27.1114 33.6172 26.6906 33.385C26.2999 33.2044 25.8772 33.1158 25.4513 33.1252C24.69 33.1252 24.0425 33.3133 23.5088 33.6896C23.2656 33.8628 22.9985 34.4852 22.7073 35.557C22.4641 36.4827 22.0672 36.9472 21.5167 36.9505C21.2227 36.9379 20.9339 36.8642 20.6665 36.7335C20.6176 36.5276 20.593 36.3159 20.5936 36.1034C20.5936 35.6548 20.7152 35.0908 20.9583 34.4112C21.2975 33.4709 21.4917 32.9069 21.541 32.7191C21.974 30.8866 22.5175 29.0859 23.1684 27.3279ZM24.5039 29.2819C24.4032 29.6477 24.2733 30.0037 24.1158 30.346C23.9212 30.78 23.824 31.0839 23.824 31.2578C23.8201 31.3359 23.8391 31.4133 23.8783 31.4794C23.9175 31.5456 23.975 31.5972 24.0428 31.6271C24.4053 31.7825 24.7941 31.8564 25.1848 31.8441C25.8476 31.8441 26.236 31.6782 26.3501 31.3464C26.4321 31.0952 26.4733 30.8309 26.4717 30.565C26.4717 30.0872 26.3342 29.5371 26.0593 28.9146C26.0106 28.7819 25.7434 28.2537 25.2577 27.3299C24.9036 27.7201 24.6536 28.3708 24.5077 29.2819H24.5039Z" fill="#333333"/>
<path d="M30.7505 35.557C30.6315 35.4384 30.5616 35.2745 30.556 35.1011C30.6533 34.391 30.7505 32.9361 30.8478 30.7362C30.9282 28.9445 31.0981 27.4899 31.3575 26.3724C31.4062 26.1733 31.649 26.0737 32.0861 26.0737C32.4914 26.0737 32.7748 26.1461 32.9362 26.2907C33.4388 26.884 33.9569 27.8794 34.4907 29.277C35.0244 30.6745 35.5428 31.6699 36.046 32.2632C36.1609 31.9778 36.2338 31.6753 36.262 31.3663C36.2781 31.0699 36.2781 30.7728 36.262 30.4764C36.2461 29.9847 36.2377 29.6871 36.2377 29.5865C36.2377 29.0935 36.113 28.3552 35.8636 27.3717C35.6142 26.3883 35.4895 25.65 35.4895 25.157C35.4884 24.9386 35.5046 24.7204 35.5382 24.505C35.6005 24.1572 35.9325 23.9837 36.5342 23.9844C36.9707 23.9844 37.2378 24.1002 37.3357 24.3318C37.7566 25.3166 38.0238 26.4819 38.1372 27.8276C38.1996 28.4912 38.2308 29.6997 38.2308 31.4529C38.2308 32.944 37.8988 33.9862 37.2347 34.5795C37.0084 34.8264 36.6764 34.9495 36.2387 34.9488C35.8823 34.9488 35.6158 34.8492 35.4371 34.6661C34.9604 34.1519 34.5371 33.5846 34.1745 32.9739L33.1542 31.1931C32.9474 31.692 32.8477 32.2337 32.8624 32.7788C32.8624 32.9381 32.8705 33.1733 32.8867 33.4845C32.9026 33.7951 32.911 34.031 32.911 34.1903C32.9203 34.6122 32.8676 35.033 32.7548 35.4375C32.6494 35.778 32.3215 35.9478 31.7709 35.9472C31.3494 35.9472 31.0093 35.8171 30.7505 35.557Z" fill="#333333"/>
<path d="M38.9846 35.557C38.8656 35.4384 38.7956 35.2745 38.7901 35.1011C38.8873 34.391 38.9846 32.9361 39.0819 30.7362C39.1623 28.9445 39.3322 27.4899 39.5916 26.3723C39.6402 26.1733 39.8831 26.0737 40.3202 26.0737C40.7254 26.0737 41.0088 26.1461 41.1703 26.2907C41.6729 26.884 42.191 27.8794 42.7247 29.2769C43.2584 30.6745 43.7769 31.6699 44.2801 32.2632C44.395 31.9801 44.4685 31.68 44.498 31.3733C44.5141 31.0769 44.5141 30.7798 44.498 30.4834C44.4821 29.9916 44.4737 29.694 44.4737 29.5935C44.4737 29.1004 44.349 28.3622 44.0996 27.3787C43.8502 26.3952 43.7255 25.657 43.7255 25.1639C43.7243 24.9455 43.7406 24.7274 43.7741 24.5119C43.8364 24.1642 44.1685 23.9907 44.7701 23.9913C45.2066 23.9913 45.4738 24.1071 45.5717 24.3387C45.9925 25.3235 46.2597 26.4888 46.3732 27.8346C46.4355 28.4982 46.4667 29.7066 46.4667 31.4599C46.4667 32.951 46.1347 33.9932 45.4707 34.5865C45.2443 34.8333 44.9123 34.9564 44.4746 34.9557C44.1183 34.9557 43.8517 34.8562 43.6731 34.6731C43.1963 34.1589 42.773 33.5916 42.4105 32.9809L41.3901 31.2001C41.1833 31.699 41.0836 32.2407 41.0983 32.7858C41.0983 32.945 41.1064 33.1803 41.1226 33.4915C41.1385 33.8021 41.1469 34.038 41.1469 34.1972C41.1552 34.617 41.1015 35.0355 40.9879 35.4375C40.8832 35.778 40.5555 35.9478 40.005 35.9472C39.5835 35.9472 39.2434 35.8171 38.9846 35.557Z" fill="#333333"/>
<path d="M47.4375 28.6737C47.4166 28.3207 47.3595 27.9713 47.2673 27.6315C47.1746 27.2919 47.1175 26.9423 47.0971 26.5893C47.0852 26.2508 47.1889 25.9191 47.3889 25.6556C48.1658 24.6602 49.3399 24.1608 50.9111 24.1575C52.0764 24.1575 53.1052 24.4618 53.9975 25.0703C54.0514 25.1025 54.0958 25.15 54.1259 25.2074C54.1559 25.2649 54.1704 25.3301 54.1677 25.3958C54.1677 25.5551 54.0742 25.7143 53.8871 25.8736C53.6937 26.0372 53.4629 26.143 53.2184 26.1802C52.9266 26.2087 52.5297 26.1653 52.0278 26.0498C51.4766 25.9171 51.0882 25.8507 50.8625 25.8507C50.6316 25.8485 50.4018 25.8852 50.1816 25.9592C49.7451 26.1324 49.5269 26.5014 49.5269 27.0661C49.536 27.2815 49.5603 27.4958 49.5999 27.7072C49.6404 27.9254 49.6648 28.1468 49.6728 28.3691C49.6838 28.6111 49.6334 28.8518 49.5269 29.0659C49.8486 29.2252 50.2592 29.3048 50.7587 29.3048C50.9195 29.3048 51.1571 29.2938 51.4713 29.2719C51.7856 29.25 52.015 29.2391 52.1597 29.2391C53.0295 29.2391 53.6012 29.5503 53.875 30.1728C53.5514 30.6944 52.8873 30.9621 51.8828 30.9761C50.7824 30.9913 50.0943 31.1327 49.8187 31.4001C49.5431 31.6676 49.4053 32.1052 49.4053 32.7131C49.4053 32.5253 49.4783 33.2128 49.6242 34.7755C49.8238 34.8199 50.0272 34.8419 50.2312 34.8412C50.8304 34.8412 51.5755 34.6753 52.4665 34.3435C53.6804 33.8956 54.4171 33.6424 54.6765 33.584C54.741 33.5114 54.8869 33.5771 55.1142 33.7831C55.1611 33.9224 55.1854 34.0692 55.1862 34.2171C55.1862 34.7526 54.9028 35.1146 54.336 35.3031C53.4631 35.5924 52.5971 35.8891 51.7379 36.193C50.749 36.4976 49.8583 36.6353 49.0658 36.6061C48.7581 36.5772 48.4495 36.5513 48.1427 36.5295C47.836 36.5076 47.6564 36.3961 47.6078 36.193C47.4354 35.6929 47.3532 35.1627 47.3655 34.6302C47.3655 34.4272 47.3777 34.1196 47.402 33.7075C47.4263 33.2954 47.4385 32.9805 47.4385 32.7628C47.4459 32.3005 47.3886 31.8395 47.2683 31.3951C47.2016 31.2484 47.12 31.1099 47.0251 30.982C46.8948 30.8088 46.8299 30.6642 46.8305 30.548C46.8301 30.4991 46.8393 30.4507 46.8575 30.4058C46.8757 30.3609 46.9025 30.3205 46.9362 30.2873L47.3103 29.9837C47.3951 29.8489 47.4375 29.4123 47.4375 28.6737Z" fill="#333333"/>
<path d="M55.6716 32.9947C55.6776 29.9276 55.9953 26.8702 56.619 23.8758C56.6676 23.6588 56.8332 23.4777 57.1166 23.3224C57.3909 23.1726 57.6948 23.0944 58.0032 23.0944C58.5862 23.0944 58.9182 23.3114 58.9992 23.7454C59.0827 24.2106 59.1234 24.6833 59.1208 25.1569C59.1208 25.9672 58.9668 27.1829 58.6588 28.8041C58.3508 30.4253 58.1971 31.6556 58.1977 32.4951C58.1923 33.1927 58.2821 33.8874 58.4643 34.5575C60.8043 34.5575 62.4021 34.3694 63.2575 33.9931C63.6447 33.7622 63.9839 33.6464 64.2751 33.6457C64.4398 33.6435 64.6036 33.6728 64.7586 33.7323C65.3391 34.2719 65.6293 34.6773 65.6293 34.9487C65.6303 35.004 65.6131 35.0579 65.5807 35.101C64.739 35.969 63.2977 36.4103 61.257 36.4249H59.8728C58.4312 36.4402 57.3058 36.614 56.4965 36.9465C55.8324 36.5702 55.5004 35.9398 55.5004 35.0552C55.5093 34.7063 55.5377 34.3583 55.5855 34.013C55.6324 33.6756 55.6611 33.3356 55.6716 32.9947Z" fill="#333333"/>
<path d="M69.6669 32.4861C69.6669 32.3839 69.66 31.5239 69.6463 29.906C69.632 28.8768 69.6388 28.0168 69.6669 27.3259C69.6892 26.4421 69.7645 25.5607 69.8923 24.6871C70.017 23.8709 70.4269 23.4628 71.1222 23.4628C71.4848 23.4759 71.835 23.6068 72.1257 23.838C72.1981 23.8994 72.2574 23.9763 72.2998 24.0638C72.3422 24.1513 72.3667 24.2474 72.3717 24.3457C72.3712 24.3907 72.3642 24.4353 72.3511 24.4781C71.9415 25.7569 71.7366 27.2931 71.7366 29.0868C71.7366 29.6602 71.7706 30.6748 71.8386 32.1308C71.8928 33.4102 71.9134 34.4172 71.9003 35.1518C71.8863 35.3877 71.6478 35.5052 71.183 35.5052C70.9692 35.5097 70.7578 35.4566 70.5685 35.3509C70.132 35.116 69.8589 34.7042 69.7492 34.1156C69.6943 33.8688 69.6669 33.3256 69.6669 32.4861Z" fill="#333333"/>
<path d="M75.7929 36.3015C75.7107 36.3009 75.6299 36.2796 75.5569 36.2395C75.4839 36.1994 75.4209 36.1415 75.3729 36.0705C75.268 35.9456 75.2066 35.786 75.199 35.6186C75.1709 35.2503 75.1578 34.8681 75.1578 34.4719C75.1578 33.369 75.2635 31.7292 75.4749 29.5526C75.6862 27.376 75.7922 25.7442 75.7929 24.6572C75.7929 24.481 75.7171 24.3924 75.5675 24.3924C75.5394 24.3924 75.2803 24.481 74.7884 24.6572C74.5287 24.739 74.278 24.8498 74.0402 24.9877C73.6779 25.1788 73.4014 25.2744 73.2106 25.2744C73.1067 25.2763 73.0035 25.2547 72.9081 25.2109C72.8126 25.1671 72.727 25.1022 72.6569 25.0205C72.5837 24.9403 72.5261 24.8454 72.4874 24.7414C72.4487 24.6373 72.4297 24.5262 72.4315 24.4143C72.4315 23.9883 72.6229 23.6721 73.0058 23.4657C74.4764 22.6848 76.0947 22.2702 77.7382 22.2533H80.8741C80.9153 22.2533 80.9677 22.319 81.0378 22.4524C81.0739 22.5286 81.1149 22.6021 81.1603 22.6724C81.1989 22.7625 81.2199 22.86 81.2221 22.959C81.2221 23.472 80.9081 23.8456 80.2803 24.0799C80.198 24.0951 79.4669 24.1615 78.0871 24.279C77.5964 26.8007 77.2961 30.4355 77.1864 35.1836C77.1864 35.4186 77.0121 35.6641 76.6636 35.9202C76.315 36.1764 76.0248 36.3035 75.7929 36.3015Z" fill="#333333"/>
</g>
<defs>
<clipPath id="clip0_231_6">
<rect width="83" height="44" fill="white"/>
</clipPath>
</defs>
</svg>
